<svg width="96" height="62" viewBox="0 0 96 62" fill="none" xmlns="http://www.w3.org/2000/svg">
<path d="M0 8C0 3.58172 3.58172 0 8 0H88C92.4183 0 96 3.58172 96 8C96 12.4183 92.4183 16 88 16H8C3.58172 16 0 12.4183 0 8Z" fill="#5A6C79"/>
<path d="M0 31C0 26.5817 3.58172 23 8 23H88C92.4183 23 96 26.5817 96 31C96 35.4183 92.4183 39 88 39H8C3.58172 39 0 35.4183 0 31Z" fill="#5A6C79"/>
<path d="M0 54C0 49.5817 3.58172 46 8 46H88C92.4183 46 96 49.5817 96 54C96 58.4183 92.4183 62 88 62H8C3.58172 62 0 58.4183 0 54Z" fill="#5A6C79"/>
</svg>
